<svg width="19" height="19" viewBox="0 0 19 19" fill="none" xmlns="http://www.w3.org/2000/svg">
<g clip-path="url(#clip0_364_464)">
<path d="M15.3836 10.4537V11.5462H13.1914V12.6459H6.62207V13.7384H9.90676V14.8309H10.9993V15.9306H12.0989V17.0231H16.4761V18.1156H17.5758V19.2152H18.6683V20.3077H19.7608V15.9306H20.8605V14.8309H21.953V10.4537H20.8605V9.35399H19.7608V8.26149H17.5758V4.97681H16.4761V10.4537H15.3836Z" fill="#121214"/>
<path d="M16.4765 3.8772H15.384V4.97688H16.4765V3.8772Z" fill="#121214"/>
<path d="M14.2846 7.16895H12.0996V9.35395H14.2846V7.16895Z" fill="#121214"/>
<path d="M15.3836 2.78467H13.1914V3.87717H15.3836V2.78467Z" fill="#121214"/>
<path d="M9.90715 7.16895H7.71497V9.35395H9.90715V7.16895Z" fill="#121214"/>
<path d="M6.62215 13.7383H5.52246V14.8308H6.62215V13.7383Z" fill="#121214"/>
<path d="M13.1922 1.69214H4.43066V2.78464H13.1922V1.69214Z" fill="#121214"/>
<path d="M4.43027 12.646H3.33777V17.0232H4.43027V15.9307H5.52277V14.831H4.43027V12.646Z" fill="#121214"/>
<path d="M5.52277 7.16895H3.33777V9.35395H5.52277V7.16895Z" fill="#121214"/>
<path d="M4.43029 2.78467H2.2381V3.87717H4.43029V2.78467Z" fill="#121214"/>
<path d="M3.33779 11.5461H2.2381V12.6458H3.33779V11.5461Z" fill="#121214"/>
<path d="M2.23807 10.4536H1.14557V11.5461H2.23807V10.4536Z" fill="#121214"/>
<path d="M2.23807 3.8772H1.14557V4.97688H2.23807V3.8772Z" fill="#121214"/>
<path d="M1.14559 4.97681H0.0458984V10.4537H1.14559V4.97681Z" fill="#121214"/>
</g>
<defs>
<clipPath id="clip0_364_464">
<rect width="19" height="19" fill="white"/>
</clipPath>
</defs>
</svg>
