<svg width="32" height="31" viewBox="0 0 32 31" fill="none" xmlns="http://www.w3.org/2000/svg">
<path d="M31.24 3.05005H29.71V27.43H31.24V3.05005Z" fill="#000001"/>
<path d="M29.7099 27.4301H28.1899V28.9501H29.7099V27.4301Z" fill="#000001"/>
<path d="M29.7099 1.52002H28.1899V3.05002H29.7099V1.52002Z" fill="#000001"/>
<path d="M28.1896 28.95H3.80957V30.48H28.1896V28.95Z" fill="#000001"/>
<path d="M11.3135 7.08181L24.2394 20.0077L23.1646 21.0825L24.2465 22.1644L22.0898 24.3211L21.0079 23.2392L22.0827 22.1644L9.15683 9.23849L8.08203 10.3133L7.00015 9.23142L9.15683 7.07474L10.2387 8.15662L11.3135 7.08181Z" fill="#000001"/>
<path d="M20.0078 7.08181L7.08187 20.0077L8.15668 21.0825L7.0748 22.1644L9.23148 24.3211L10.3134 23.2392L9.23855 22.1644L22.1645 9.23849L23.2393 10.3133L24.3211 9.23142L22.1645 7.07474L21.0826 8.15662L20.0078 7.08181Z" fill="#000001"/>
<path d="M8.0819 10.3131L21.0078 23.239L19.933 24.3138L7.0071 11.3879L8.0819 10.3131Z" fill="#000001"/>
<path d="M23.2394 10.3131L10.3135 23.239L11.3954 24.3209L24.3213 11.395L23.2394 10.3131Z" fill="#000001"/>
<path d="M28.1896 0H3.80957V1.52H28.1896V0Z" fill="#000001"/>
<path d="M3.80955 27.4301H2.28955V28.9501H3.80955V27.4301Z" fill="#000001"/>
<path d="M3.80955 1.52002H2.28955V3.05002H3.80955V1.52002Z" fill="#000001"/>
<path d="M2.28977 3.05005H0.759766V27.43H2.28977V3.05005Z" fill="#000001"/>
<path d="M9.40503 8.99996L22.5 22L20.8398 23.3956L8.00018 10.3865L9.40503 8.99996Z" fill="#000001"/>
<path d="M8.95312 21.9772L21.9608 8.96948L23.5 10.5L10.6012 23.6252L8.95312 21.9772Z" fill="#000001"/>
</svg>
