<svg width="19" height="19" viewBox="0 0 19 19" fill="none" xmlns="http://www.w3.org/2000/svg">
<path d="M18.0972 7.23776V6.33526H17.1888V5.42683H16.2863V3.62183H15.3838V10.8596H16.2863V9.9512H17.1888V9.0487H18.0972V17.189H18.9997V7.23776H18.0972Z" fill="#121214"/>
<path d="M18.0979 17.189H17.1895V18.0974H18.0979V17.189Z" fill="#121214"/>
<path d="M17.1887 18.0974H1.81055V18.9999H17.1887V18.0974Z" fill="#121214"/>
<path d="M15.3841 10.8596H14.4756V11.7621H15.3841V10.8596Z" fill="#121214"/>
<path d="M14.4756 15.384H13.5731V16.2865H14.4756V15.384Z" fill="#121214"/>
<path d="M14.4756 11.7622H13.5731V12.6647H14.4756V11.7622Z" fill="#121214"/>
<path d="M13.5735 14.4756H12.665V15.384H13.5735V14.4756Z" fill="#121214"/>
<path d="M13.5735 12.6646H12.665V13.573H13.5735V12.6646Z" fill="#121214"/>
<path d="M13.5735 6.33545H12.665V9.04889H13.5735V6.33545Z" fill="#121214"/>
<path d="M12.6642 5.42676H11.7617V6.3352H12.6642V5.42676Z" fill="#121214"/>
<path d="M12.6643 13.5732H6.33496V14.4757H12.6643V13.5732Z" fill="#121214"/>
<path d="M12.6644 9.04883H10.8594V9.95133H12.6644V9.04883Z" fill="#121214"/>
<path d="M10.8597 6.33521H8.14624V7.2377H9.95124V9.04864H10.8597V6.33521Z" fill="#121214"/>
<path d="M9.95124 9.04883H8.14624V9.95133H9.95124V9.04883Z" fill="#121214"/>
<path d="M11.7627 4.52441H7.23828V5.42691H11.7627V4.52441Z" fill="#121214"/>
<path d="M11.7627 10.8596H7.23828V11.7621H11.7627V10.8596Z" fill="#121214"/>
<path d="M8.14672 7.23779H7.23828V9.04873H8.14672V7.23779Z" fill="#121214"/>
<path d="M7.23746 9.95117H6.33496V10.8596H7.23746V9.95117Z" fill="#121214"/>
<path d="M7.23746 5.42676H6.33496V6.3352H7.23746V5.42676Z" fill="#121214"/>
<path d="M6.33532 14.4756H5.42688V15.384H6.33532V14.4756Z" fill="#121214"/>
<path d="M6.33532 12.6648H5.42688V13.5732H6.33532V12.6648Z" fill="#121214"/>
<path d="M6.33532 6.33521H5.42688V9.95114H6.33532V6.33521Z" fill="#121214"/>
<path d="M5.42685 15.384H4.52435V16.2865H5.42685V15.384Z" fill="#121214"/>
<path d="M5.42685 11.7622H4.52435V12.6647H5.42685V11.7622Z" fill="#121214"/>
<path d="M15.3841 3.62188V2.71344H13.5731V1.81094H12.6647V0.9025H11.7622V0H7.23782V0.9025H6.33532V1.81094H5.42689V2.71344H3.62189V3.62188H15.3841Z" fill="#121214"/>
<path d="M4.52439 10.8596H3.62189V11.7621H4.52439V10.8596Z" fill="#121214"/>
<path d="M1.81096 17.189H0.902527V18.0974H1.81096V17.189Z" fill="#121214"/>
<path d="M0.9025 9.0487H1.81094V9.9512H2.71344V10.8596H3.62188V3.62183H2.71344V5.42683H1.81094V6.33526H0.9025V7.23776H0V17.189H0.9025V9.0487Z" fill="#121214"/>
</svg>
