<svg width="32" height="32" viewBox="0 0 32 32" fill="none" xmlns="http://www.w3.org/2000/svg">
<path d="M31.5 6.6001V25.3999H30.9697V6.6001H31.5Z" fill="#FFFAFA" stroke="#FFFAFA"/>
<path d="M29.9695 26.4001V26.9304H29.45V26.4001H29.9695Z" fill="#FFFAFA" stroke="#FFFAFA"/>
<path d="M29.9695 5.07007V5.60034H29.45V5.07007H29.9695Z" fill="#FFFAFA" stroke="#FFFAFA"/>
<path d="M28.4492 8.12012V10.1699H27.9297V8.12012H28.4492Z" fill="#FFFAFA" stroke="#FFFAFA"/>
<path d="M28.4504 27.9299V28.4495H3.55005V27.9299H28.4504Z" fill="#FFFAFA" stroke="#FFFAFA"/>
<path d="M26.9307 23.3601V23.8796H26.4004V23.3601H26.9307Z" fill="#FFFAFA" stroke="#FFFAFA"/>
<path d="M26.9307 11.1699V11.6895H26.4004V11.1699H26.9307Z" fill="#FFFAFA" stroke="#FFFAFA"/>
<path d="M25.3995 21.8301V22.3604H24.88V21.8301H25.3995Z" fill="#FFFAFA" stroke="#FFFAFA"/>
<path d="M25.3995 12.6899V13.2095H24.88V12.6899H25.3995Z" fill="#FFFAFA" stroke="#FFFAFA"/>
<path d="M23.8799 20.3101V20.8296H23.3496V20.3101H23.8799Z" fill="#FFFAFA" stroke="#FFFAFA"/>
<path d="M23.8799 14.21V14.7402H23.3496V14.21H23.8799Z" fill="#FFFAFA" stroke="#FFFAFA"/>
<path d="M22.3495 18.79V19.3096H21.83V18.79H22.3495Z" fill="#FFFAFA" stroke="#FFFAFA"/>
<path d="M22.3495 15.74V16.2595H21.83V15.74H22.3495Z" fill="#FFFAFA" stroke="#FFFAFA"/>
<path d="M20.8301 17.26V17.7903H18.7803V17.26H20.8301Z" fill="#FFFAFA" stroke="#FFFAFA"/>
<path d="M17.7803 18.79V19.3096H14.21V18.79H17.7803Z" fill="#FFFAFA" stroke="#FFFAFA"/>
<path d="M13.2098 17.26V17.7903H11.16V17.26H13.2098Z" fill="#FFFAFA" stroke="#FFFAFA"/>
<path d="M10.1592 18.79V19.3096H9.63965V18.79H10.1592Z" fill="#FFFAFA" stroke="#FFFAFA"/>
<path d="M10.1592 15.74V16.2595H9.63965V15.74H10.1592Z" fill="#FFFAFA" stroke="#FFFAFA"/>
<path d="M8.63953 20.3101V20.8296H8.12V20.3101H8.63953Z" fill="#FFFAFA" stroke="#FFFAFA"/>
<path d="M8.63953 14.21V14.7402H8.12V14.21H8.63953Z" fill="#FFFAFA" stroke="#FFFAFA"/>
<path d="M7.12024 21.8301V22.3604H6.58997V21.8301H7.12024Z" fill="#FFFAFA" stroke="#FFFAFA"/>
<path d="M7.12024 12.6899V13.2095H6.58997V12.6899H7.12024Z" fill="#FFFAFA" stroke="#FFFAFA"/>
<path d="M5.58984 23.3601V23.8796H5.07031V23.3601H5.58984Z" fill="#FFFAFA" stroke="#FFFAFA"/>
<path d="M5.58984 11.1699V11.6895H5.07031V11.1699H5.58984Z" fill="#FFFAFA" stroke="#FFFAFA"/>
<path d="M28.4504 3.55005V4.06958H3.55005V3.55005H28.4504Z" fill="#FFFAFA" stroke="#FFFAFA"/>
<path d="M4.06958 8.12012V10.1699H3.55005V8.12012H4.06958Z" fill="#FFFAFA" stroke="#FFFAFA"/>
<path d="M2.5498 26.3999V26.9302H2.01953V26.3999H2.5498Z" fill="#FFFAFA" stroke="#FFFAFA"/>
<path d="M2.5498 5.07007V5.60034H2.01953V5.07007H2.5498Z" fill="#FFFAFA" stroke="#FFFAFA"/>
<path d="M1.01953 6.6001V25.3999H0.5V6.6001H1.01953Z" fill="#FFFAFA" stroke="#FFFAFA"/>
</svg>
