<svg width="32" height="32" viewBox="0 0 32 32" fill="none" xmlns="http://www.w3.org/2000/svg">
<g clip-path="url(#clip0_364_121)">
<path d="M31.9997 3.05005H30.4697V28.9501H31.9997V3.05005Z" fill="#FFFAFA"/>
<path d="M30.4699 28.95H28.95V30.4799H30.4699V28.95Z" fill="#FFFAFA"/>
<path d="M30.4699 1.52002H28.95V3.05002H30.4699V1.52002Z" fill="#FFFAFA"/>
<path d="M28.95 4.57007H27.42V27.4301H28.95V4.57007Z" fill="#FFFAFA"/>
<path d="M28.95 30.48H3.04004V32H28.95V30.48Z" fill="#FFFAFA"/>
<path d="M27.4203 27.4302H4.57031V28.9502H27.4203V27.4302Z" fill="#FFFAFA"/>
<path d="M22.85 15.24H21.33V13.71H18.28V15.24H16.76V13.71H13.71V22.86H16.76V18.29H18.28V16.76H19.81V18.29H21.33V22.86H24.38V16.76H22.85V15.24Z" fill="#FFFAFA"/>
<path d="M10.6604 13.71H7.61035V22.86H10.6604V13.71Z" fill="#FFFAFA"/>
<path d="M10.6604 9.14014H7.61035V12.1901H10.6604V9.14014Z" fill="#FFFAFA"/>
<path d="M27.4203 3.05005H4.57031V4.57005H27.4203V3.05005Z" fill="#FFFAFA"/>
<path d="M28.95 0H3.04004V1.52H28.95V0Z" fill="#FFFAFA"/>
<path d="M4.57004 4.57007H3.04004V27.4301H4.57004V4.57007Z" fill="#FFFAFA"/>
<path d="M3.03953 28.95H1.51953V30.4799H3.03953V28.95Z" fill="#FFFAFA"/>
<path d="M3.03953 1.52002H1.51953V3.05002H3.03953V1.52002Z" fill="#FFFAFA"/>
<path d="M1.52 3.05005H0V28.9501H1.52V3.05005Z" fill="#FFFAFA"/>
</g>
<defs>
<clipPath id="clip0_364_121">
<rect width="32" height="32" fill="white"/>
</clipPath>
</defs>
</svg>
