<svg width="54" height="50" viewBox="0 0 54 50" fill="none" xmlns="http://www.w3.org/2000/svg">
<g style="mix-blend-mode:difference">
<path d="M34.345 26.4612V24.1033C34.345 21.6529 34.0098 19.2604 33.3394 16.9256C31.9062 11.9555 29.2362 8.60357 25.3295 6.86982C23.5495 6.08385 21.6077 5.69087 19.5041 5.69087L19.0187 5.72554C16.3834 5.72554 14.9039 6.31502 14.5802 7.49397C14.5109 7.74825 14.4762 11.2042 14.4762 17.8618L14.4762 31.177L14.4415 31.6972C14.4415 32.0439 14.4415 32.3907 14.4415 32.7374L14.3375 36.3783C14.3375 36.725 14.3375 37.0718 14.3375 37.4185L14.3028 38.9789V39.5337C14.3028 41.4755 14.5456 42.7585 15.031 43.3826C15.5165 44.0068 16.7532 44.3189 18.7413 44.3189H20.8218C22.7636 44.3189 24.6129 43.8219 26.3698 42.8278C28.1498 41.8338 29.5599 40.6433 30.6001 39.2563C31.6404 37.8462 32.5188 36.0084 33.2354 33.743C33.9752 31.4544 34.345 29.0272 34.345 26.4612ZM2.20126 5.62152C0.883605 4.95113 0.224779 4.15361 0.224779 3.22894C0.224779 2.28115 0.77958 1.71479 1.88918 1.52986C5.00994 0.998177 10.3846 0.732335 18.0131 0.732335H19.8509C27.9186 0.732335 34.2641 2.85907 38.8875 7.11254C43.5108 11.3429 45.8225 17.1683 45.8225 24.5888C45.8225 32.0092 43.5108 37.9618 38.8875 42.4464C34.2641 46.9311 28.1382 49.1734 20.5097 49.1734H17.7704L16.8688 49.1387L14.9963 49.104C14.3953 49.0809 13.8058 49.0694 13.2279 49.0694L5.46071 48.8266C2.87164 48.8266 1.33438 48.6764 0.84893 48.3758C0.386596 48.0753 0.155429 47.4859 0.155429 46.6074C0.155429 46.0989 0.825813 45.4054 2.16658 44.5269C3.50735 43.6254 4.35111 42.562 4.69786 41.3368C5.04461 40.1116 5.21799 36.0431 5.21799 29.1312L5.14864 24.6928L5.25266 19.4569L5.28734 18.59C5.31045 17.9889 5.32201 17.3995 5.32201 16.8216L5.39136 14.2209C5.39136 11.0771 5.14864 8.9272 4.66319 7.77137C4.33955 7.00852 3.51891 6.2919 2.20126 5.62152ZM47.7393 38.9096H48.2941C49.658 38.9096 50.9063 39.4181 52.039 40.4353C53.1948 41.4293 53.7728 42.6891 53.7728 44.2148V44.5616C53.7728 45.9486 53.218 47.1969 52.1084 48.3065C51.0219 49.393 49.6927 49.9362 48.1207 49.9362H47.7393L47.5313 49.9016C45.9824 49.9016 44.6763 49.3814 43.613 48.3412C42.5727 47.2778 42.0526 46.0526 42.0526 44.6656V44.2842C42.0526 42.9203 42.6074 41.6836 43.717 40.574C44.8266 39.4644 46.1674 38.9096 47.7393 38.9096Z" fill="white"/>
</g>
</svg>
