<svg width="32" height="32" viewBox="0 0 32 32" fill="none" xmlns="http://www.w3.org/2000/svg">
<g clip-path="url(#clip0_404_1123)">
<path d="M31.24 3.81006H29.71V28.1901H31.24V3.81006Z" fill="#000001"/>
<path d="M29.7099 28.1901H28.1899V29.7101H29.7099V28.1901Z" fill="#000001"/>
<path d="M29.7099 2.28003H28.1899V3.81003H29.7099V2.28003Z" fill="#000001"/>
<path d="M28.1896 29.71H3.80957V31.24H28.1896V29.71Z" fill="#000001"/>
<path d="M25.1396 20.5701H6.85959V22.0901H5.32959V25.1401H6.85959V23.6201H25.1396V25.1401H26.6696V22.0901H25.1396V20.5701Z" fill="#000001"/>
<path d="M25.1396 12.95H6.85959V14.47H5.32959V17.52H6.85959V16H25.1396V17.52H26.6696V14.47H25.1396V12.95Z" fill="#000001"/>
<path d="M25.1396 5.32996H6.85959V6.84996H5.32959V9.89996H6.85959V8.37996H25.1396V9.89996H26.6696V6.84996H25.1396V5.32996Z" fill="#000001"/>
<path d="M25.1399 25.14H6.85986V26.66H25.1399V25.14Z" fill="#000001"/>
<path d="M25.1399 17.52H6.85986V19.04H25.1399V17.52Z" fill="#000001"/>
<path d="M25.1399 9.90002H6.85986V11.43H25.1399V9.90002Z" fill="#000001"/>
<path d="M28.1896 0.76001H3.80957V2.28001H28.1896V0.76001Z" fill="#000001"/>
<path d="M3.80955 28.1901H2.28955V29.7101H3.80955V28.1901Z" fill="#000001"/>
<path d="M3.80955 2.28003H2.28955V3.81003H3.80955V2.28003Z" fill="#000001"/>
<path d="M2.28977 3.81006H0.759766V28.1901H2.28977V3.81006Z" fill="#000001"/>
</g>
<defs>
<clipPath id="clip0_404_1123">
<rect width="32" height="32" fill="white"/>
</clipPath>
</defs>
</svg>
