<svg width="31" height="31" viewBox="0 0 31 31" fill="none" xmlns="http://www.w3.org/2000/svg">
<rect x="1.65332" y="1.65308" width="27.693" height="27.693" fill="#FFFAFA"/>
<path d="M30.9994 3.10181H29.4434V27.8974H30.9994V3.10181Z" fill="black"/>
<path d="M29.4424 27.8965H27.8965V29.4424H29.4424V27.8965Z" fill="black"/>
<path d="M29.4424 1.5459H27.8965V3.10198H29.4424V1.5459Z" fill="black"/>
<path d="M27.8972 29.4429H3.10156V30.999H27.8972V29.4429Z" fill="black"/>
<path d="M24.7952 20.147H6.20354V21.6929H4.64746V24.7949H6.20354V23.249H24.7952V24.7949H26.3513V21.6929H24.7952V20.147Z" fill="black"/>
<path d="M24.7952 12.3975H6.20354V13.9434H4.64746V17.0454H6.20354V15.4995H24.7952V17.0454H26.3513V13.9434H24.7952V12.3975Z" fill="black"/>
<path d="M24.7962 4.64795H6.20452V6.19386H4.64844V9.29586H6.20452V7.74995H24.7962V9.29586H26.3522V6.19386H24.7962V4.64795Z" fill="black"/>
<path d="M24.7957 24.7947H6.2041V26.3406H24.7957V24.7947Z" fill="black"/>
<path d="M24.7957 17.0452H6.2041V18.5911H24.7957V17.0452Z" fill="black"/>
<path d="M24.7957 9.29541H6.2041V10.8515H24.7957V9.29541Z" fill="black"/>
<path d="M27.8972 0H3.10156V1.54591H27.8972V0Z" fill="black"/>
<path d="M3.10255 27.8965H1.55664V29.4424H3.10255V27.8965Z" fill="black"/>
<path d="M3.10255 1.5459H1.55664V3.10198H3.10255V1.5459Z" fill="black"/>
<path d="M1.55608 3.10205H0V27.8977H1.55608V3.10205Z" fill="black"/>
</svg>
