<svg width="32" height="32" viewBox="0 0 32 32" fill="none" xmlns="http://www.w3.org/2000/svg">
<g clip-path="url(#clip0_364_110)">
<path d="M28.952 4.5752H27.432V30.4752H28.952V4.5752Z" fill="#FFFAFA"/>
<path d="M27.4316 3.04517H25.9016V4.57517H27.4316V3.04517Z" fill="#FFFAFA"/>
<path d="M25.902 1.52515H24.382V3.04515H25.902V1.52515Z" fill="#FFFAFA"/>
<path d="M25.9 7.61517H24.38V6.10017H22.86V4.57517H21.33V3.04517H3.052V32.0002H25.9V7.61517ZM24.38 30.4752H4.572V4.57517H18.282V10.6652H24.382L24.38 30.4752Z" fill="#FFFAFA"/>
<path d="M24.3815 -0.00488281H4.57153V1.52512H24.3815V-0.00488281Z" fill="#FFFAFA"/>
<path d="M21.3323 25.9053H7.62231V27.4253H21.3323V25.9053Z" fill="#FFFAFA"/>
<path d="M21.3323 19.8052H7.62231V21.3352H21.3323V19.8052Z" fill="#FFFAFA"/>
<path d="M21.3323 13.7151H7.62231V15.2351H21.3323V13.7151Z" fill="#FFFAFA"/>
<path d="M13.7123 7.61523H7.62231V9.14524H13.7123V7.61523Z" fill="#FFFAFA"/>
</g>
<defs>
<clipPath id="clip0_364_110">
<rect width="32" height="32" fill="white"/>
</clipPath>
</defs>
</svg>
